<svg xmlns="http://www.w3.org/2000/svg" viewBox="0 0 308 74"><defs><style>.a{fill:#b2db31;}.b{fill:#fff;}</style></defs><polygon class="a" points="264.62 8.48 246.96 20.1 264.62 31.71 264.62 8.48"/><path class="b" d="M46,65.52,34.47,46.71H22.3V65.52H11.93V16H36.68q8.87,0,13.68,3.81t4.82,11a14.17,14.17,0,0,1-3,9,13.91,13.91,0,0,1-8,5l13.4,20.81ZM44.73,31.17q0-7.12-9.14-7.13H22.3V38.66H35.88c2.9,0,5.1-.65,6.6-2A6.94,6.94,0,0,0,44.73,31.17Z"/><path class="b" d="M63.93,65.52V16h38.95v8H74.3V36.45h26.44v8H74.3v13h30v8Z"/><path class="b" d="M162.23,65.52H149.92l-6.71-28.65Q142,31.8,141.13,26.29q-.84,4.61-1.37,7t-7.49,32.22H120L107.21,16h10.51l7.17,32,1.62,7.73c.65-3.25,1.29-6.37,1.91-9.33s3-13.1,7-30.39H147l6.26,26.36q.73,3,2.49,13.36l.88-4.07,1.87-8.09,6-27.56H175Z"/><path class="b" d="M179.91,65.52V16h10.37V65.52Z"/><path class="b" d="M230.08,65.52,208.49,27.38a83.51,83.51,0,0,1,.64,8.93V65.52h-9.22V16h11.85l21.9,38.46a82.63,82.63,0,0,1-.63-9.67V16h9.21V65.52Z"/><path class="b" d="M289.21,22.3Q282.36,16,269.84,16h-.22v8h0q7.69,0,11.85,4.2t4.15,12.19q0,7.9-3.94,12.51a13.27,13.27,0,0,1-10.62,4.61H251.91v8h20a25.8,25.8,0,0,0,12.6-3,20.74,20.74,0,0,0,8.51-8.74,28.38,28.38,0,0,0,3-13.37Q296.07,28.6,289.21,22.3Z"/></svg>